<svg xmlns="http://www.w3.org/2000/svg" viewBox="0 0 327.31 70.37"><title>andamiaje-logo</title><path d="M20.82,1.87,0,55.83H5.78l5.57-14.54H35.28l5.63,14.54h5.78l-21-54ZM13.39,35.93l9.86-25.75,10,25.75Z"/><path d="M67.24,17.78a17.65,17.65,0,0,0-9,2.32A16.11,16.11,0,0,0,54.55,23v-5H49.33V55.83h5.21V37.13c0-4.27,1.17-7.75,3.49-10.32A11.5,11.5,0,0,1,67.1,23c3.72,0,8.66,1.17,8.66,11.33V55.83H81V33.39c0-5.05-1.24-8.95-3.69-11.58A13.1,13.1,0,0,0,67.24,17.78Z"/><path d="M116.42,23.22a17,17,0,0,0-12.62-5.43,18,18,0,0,0-13.55,5.59A19.46,19.46,0,0,0,85,37.27c0,5.61,1.84,10.21,5.48,13.66a18.65,18.65,0,0,0,13.29,5.18,16.49,16.49,0,0,0,12.69-5.22v4.93h5.28V0h-5.28ZM103.73,50.9A12.68,12.68,0,0,1,94.06,47a13.41,13.41,0,0,1-3.75-9.75,13.93,13.93,0,0,1,3.91-10.34A12.86,12.86,0,0,1,103.8,23a11.36,11.36,0,0,1,9.15,4,15.05,15.05,0,0,1,3.55,10.24c0,4.21-1.19,7.47-3.63,10A12.17,12.17,0,0,1,103.73,50.9Z"/><path d="M157.65,23.22A17,17,0,0,0,145,17.78a18,18,0,0,0-13.52,5.58,19.39,19.39,0,0,0-5.33,13.9c0,5.61,1.84,10.21,5.48,13.66A18.65,18.65,0,0,0,145,56.12a16.49,16.49,0,0,0,12.7-5.22v4.93h5.28V18.07h-5.28ZM145,50.9A12.68,12.68,0,0,1,135.29,47a13.41,13.41,0,0,1-3.75-9.75,13.93,13.93,0,0,1,3.91-10.34A12.86,12.86,0,0,1,145,23a11.36,11.36,0,0,1,9.15,4,15,15,0,0,1,3.55,10.24c0,4.21-1.19,7.47-3.63,10A12.17,12.17,0,0,1,145,50.9Z"/><path d="M211,17.78a15,15,0,0,0-8.62,2.7A15.82,15.82,0,0,0,198,25c-2.07-4.71-6.07-7.17-11.74-7.17a15.12,15.12,0,0,0-8.33,2.46,16,16,0,0,0-3.36,2.9V18.07h-5.21V55.83h5.21V37.13c0-4.24,1.11-7.72,3.3-10.32a10,10,0,0,1,8-3.81c3.66,0,8.52,1.21,8.52,11.69V55.83h5.21V37.13c0-4.25,1.09-7.72,3.24-10.33A9.57,9.57,0,0,1,210.6,23c3.56,0,8.3,1.24,8.3,12V55.83h5.21V34.11c0-5-1.09-9-3.24-11.87S215.3,17.78,211,17.78Z"/><path d="M232.94,4.82a4,4,0,0,0-4.08,4.08A4,4,0,0,0,232.94,13a4.15,4.15,0,0,0,2.92-1.15h0a4,4,0,0,0,1.23-2.93A4,4,0,0,0,235.86,6,4.15,4.15,0,0,0,232.94,4.82Z"/><rect x="230.3" y="18.07" width="5.21" height="37.75"/><path d="M276.75,55.83V18.07h-5.28v5.15a17,17,0,0,0-12.62-5.43,18,18,0,0,0-13.52,5.58A19.39,19.39,0,0,0,240,37.27c0,5.61,1.84,10.21,5.48,13.66a18.65,18.65,0,0,0,13.29,5.18,16.49,16.49,0,0,0,12.7-5.22v4.93Zm-18-4.92A12.67,12.67,0,0,1,249.1,47a13.41,13.41,0,0,1-3.75-9.75,13.93,13.93,0,0,1,3.91-10.34A12.86,12.86,0,0,1,258.84,23,11.36,11.36,0,0,1,268,27a15,15,0,0,1,3.55,10.24c0,4.21-1.19,7.47-3.63,10A12.17,12.17,0,0,1,258.77,50.9Z"/><path d="M285.87,5.11a4,4,0,0,0-4.08,4.08,4,4,0,0,0,4.08,4.08,4.15,4.15,0,0,0,2.92-1.15h0A4,4,0,0,0,290,9.19a4,4,0,0,0-1.23-2.93A4.15,4.15,0,0,0,285.87,5.11Z"/><path d="M283.37,60.1c0,4.46-2,5.06-4,5.06a5.94,5.94,0,0,1-3.44-.9L274.07,63l-.84,5.73.92.46a12.09,12.09,0,0,0,5.46,1.23c3.1,0,5.42-1,6.9-3a12,12,0,0,0,2.08-7.25v-42h-5.21Z"/><path d="M322.7,23a15.85,15.85,0,0,0-12.36-5.22,16.59,16.59,0,0,0-12.56,5.45A19.42,19.42,0,0,0,292.72,37c0,5.59,1.75,10.22,5.19,13.77a18.64,18.64,0,0,0,27.67-1.67l.81-1.05-3.9-3.43-.93,1.15a13.13,13.13,0,0,1-10.78,5.16,11.55,11.55,0,0,1-8.87-3.73,13.94,13.94,0,0,1-3.71-8.12h28.73l.26-1.08a8.22,8.22,0,0,0,.11-1.85A19,19,0,0,0,322.7,23ZM298.33,33.84a13,13,0,0,1,3.84-7.43A11.66,11.66,0,0,1,310.63,23a10.24,10.24,0,0,1,8,3.29,13.47,13.47,0,0,1,3.3,7.56Z"/></svg>